<svg xmlns="http://www.w3.org/2000/svg" viewBox="0 0 64 64" fill="none">
  <defs>
    <linearGradient id="g1" x1="0" y1="0" x2="1" y2="1">
      <stop offset="0%" stop-color="#a83206"/>
      <stop offset="100%" stop-color="#d4520a"/>
    </linearGradient>
    <linearGradient id="g2" x1="0" y1="0" x2="1" y2="1">
      <stop offset="0%" stop-color="#7fe6db"/>
      <stop offset="100%" stop-color="#5dd4c8"/>
    </linearGradient>
  </defs>
  <!-- 盾牌外形 -->
  <path d="M32 4 L56 16 V36 C56 48 44 58 32 62 C20 58 8 48 8 36 V16 Z"
        fill="url(#g1)" opacity="0.95"/>
  <!-- 内部装饰 -->
  <path d="M32 10 L50 20 V34 C50 44 40 52 32 56 C24 52 14 44 14 34 V20 Z"
        fill="#fff4f3" opacity="0.2"/>
  <!-- 中心皇冠 -->
  <path d="M22 34 L26 24 L32 30 L38 24 L42 34 Z" fill="#fff4f3"/>
  <!-- 底部宝石 -->
  <circle cx="32" cy="38" r="3" fill="url(#g2)"/>
  <!-- 顶部星 -->
  <circle cx="32" cy="18" r="2" fill="#7fe6db"/>
</svg>
